<svg width="60" height="60" viewBox="0 0 60 60" fill="none" xmlns="http://www.w3.org/2000/svg">
<path d="M51.4384 23.2999L51.4382 23.2997L32.1878 8.74109C31.5472 8.25717 30.7812 8 29.9993 8C29.2175 8 28.4514 8.25717 27.8108 8.74109L8.56078 23.2995C8.56068 23.2996 8.56058 23.2996 8.56047 23.2997C7.9198 23.7847 7.43657 24.4734 7.18729 25.2716C6.93794 26.0701 6.93756 26.9313 7.18621 27.73C7.18623 27.73 7.18625 27.7301 7.18628 27.7302C7.18631 27.7303 7.18635 27.7304 7.18639 27.7306L14.5398 51.2865L51.4384 23.2999ZM51.4384 23.2999C52.7573 24.2968 53.3265 26.0846 52.8125 27.7298L52.8125 27.73M51.4384 23.2999L52.8125 27.73M52.8125 27.73L45.4589 51.2865L52.8125 27.73ZM41.8979 54C42.6794 53.9993 43.445 53.7416 44.0851 53.2574C44.7257 52.7729 45.2091 52.0848 45.4587 51.2871L41.8979 54ZM41.8979 54H18.1008C17.3192 53.9993 16.5537 53.7416 15.9136 53.2574C15.273 52.7729 14.7896 52.0848 14.54 51.2871L41.8979 54Z" stroke="url(#paint0_linear_3385_1015)" stroke-width="2" stroke-linecap="round" stroke-linejoin="round"/>
<path d="M57.2503 19.7765L57.2502 19.7765L33.1869 1.57792C33.1868 1.57787 33.1867 1.57782 33.1867 1.57776C32.2578 0.87613 31.142 0.5 29.9992 0.5C28.8562 0.5 27.7404 0.876188 26.8115 1.57792L2.74835 19.7763C2.74829 19.7764 2.74824 19.7764 2.74819 19.7765C1.81965 20.4793 1.12531 21.4724 0.768208 22.6159C0.411058 23.7596 0.410554 24.992 0.766829 26.1359C0.766849 26.136 0.766902 26.1362 0.766922 26.1362L9.95894 55.5821L57.2503 19.7765ZM57.2503 19.7765C59.1589 21.2193 59.9655 23.7863 59.2316 26.1358L59.2315 26.1359M57.2503 19.7765L59.2315 26.1359M59.2315 26.1359L50.0394 55.5821L59.2315 26.1359ZM44.873 59.5C46.0156 59.499 47.1307 59.1221 48.0588 58.42C48.9873 57.7177 49.6818 56.7253 50.0393 55.5824L44.873 59.5ZM44.873 59.5H15.1253C13.9828 59.499 12.8677 59.1221 11.9395 58.42C11.0111 57.7177 10.3166 56.7253 9.95903 55.5824L44.873 59.5Z" stroke="url(#paint1_linear_3385_1015)" stroke-linecap="round" stroke-linejoin="round"/>
<path d="M15.5991 52.1586V50.4024C15.5991 47.7523 16.6106 45.2106 18.411 43.3367C20.2113 41.4628 22.6532 40.41 25.1993 40.41H34.7995C37.3457 40.41 39.7875 41.4628 41.5879 43.3367C43.3883 45.2106 44.3997 47.7523 44.3997 50.4024V52.1686M29.9994 32.9157C31.909 32.9157 33.7404 32.1261 35.0907 30.7206C36.441 29.3152 37.1996 27.409 37.1996 25.4214C37.1996 23.4337 36.441 21.5275 35.0907 20.1221C33.7404 18.7166 31.909 17.927 29.9994 17.927C28.0898 17.927 26.2584 18.7166 24.9082 20.1221C23.5579 21.5275 22.7993 23.4337 22.7993 25.4214C22.7993 27.409 23.5579 29.3152 24.9082 30.7206C26.2584 32.1261 28.0898 32.9157 29.9994 32.9157Z" stroke="url(#paint2_linear_3385_1015)" stroke-width="2" stroke-linecap="round" stroke-linejoin="round"/>
<defs>
<linearGradient id="paint0_linear_3385_1015" x1="30" y1="7" x2="30" y2="55" gradientUnits="userSpaceOnUse">
<stop stop-color="#FF7F00"/>
<stop offset="1" stop-color="#C2000C"/>
</linearGradient>
<linearGradient id="paint1_linear_3385_1015" x1="30" y1="0" x2="30" y2="60" gradientUnits="userSpaceOnUse">
<stop stop-color="#FF7F00"/>
<stop offset="1" stop-color="#C2000C"/>
</linearGradient>
<linearGradient id="paint2_linear_3385_1015" x1="29.9994" y1="17.927" x2="29.9994" y2="52.1686" gradientUnits="userSpaceOnUse">
<stop stop-color="#FF7F00"/>
<stop offset="0.516" stop-color="#EE4C56"/>
<stop offset="1" stop-color="#C4040B"/>
</linearGradient>
</defs>
</svg>
